<?xml version="1.0" encoding="UTF-8"?>
<svg width="512" height="512" viewBox="0 0 24 24" fill="none" xmlns="http://www.w3.org/2000/svg">
  <rect width="24" height="24" fill="#9333EA" rx="6"/>
  <path d="M12 3L20 8.9V15.1L12 21L4 15.1V8.9L12 3Z" stroke="white" stroke-width="1.5" stroke-linecap="round" stroke-linejoin="round"/>
  <path d="M12 16L17 13L12 10L7 13L12 16Z" fill="white" stroke="white" stroke-width="0.2" stroke-linecap="round" stroke-linejoin="round"/>
  <path d="M12 3L4 8.9L7 13L12 10L17 13L20 8.9L12 3Z" fill="white" stroke="white" stroke-width="0.2" stroke-linecap="round" stroke-linejoin="round"/>
  <path d="M7 13V18L12 21V16" stroke="white" stroke-width="1.5" stroke-linecap="round" stroke-linejoin="round"/>
  <path d="M17 13V18L12 21" stroke="white" stroke-width="1.5" stroke-linecap="round" stroke-linejoin="round"/>
  <circle cx="12" cy="10" r="1" fill="#9333EA"/>
  <circle cx="7" cy="13" r="1" fill="#9333EA"/>
  <circle cx="17" cy="13" r="1" fill="#9333EA"/>
</svg>
